<svg width="67" height="28" viewBox="0 0 67 28" fill="none" xmlns="http://www.w3.org/2000/svg">
<path d="M61.5301 2.87018C62.1071 1.95435 62.8739 1.17236 63.7791 0.576769C64.2788 0.227772 64.5787 0.227772 64.8785 0.875909C65.2784 1.82319 65.6282 2.82032 65.3283 3.86731C65.2738 4.04488 65.2635 4.23306 65.2983 4.4155C65.3331 4.59795 65.4121 4.76917 65.5282 4.9143C65.8281 5.31315 66.078 5.71201 66.3279 6.061C66.668 6.49165 66.8886 7.00395 66.9675 7.5465C67.0464 8.08905 66.981 8.64278 66.7777 9.15212C66.5942 9.6466 66.5594 10.1838 66.6777 10.6977C66.7776 11.1913 66.7776 11.6998 66.6777 12.1934C66.6373 12.563 66.4873 12.9122 66.247 13.1964C66.0066 13.4806 65.6868 13.6869 65.3283 13.7888C64.6891 13.9101 64.1185 14.2659 63.7291 14.7859C63.6819 14.8625 63.6157 14.9257 63.5369 14.9693C63.4581 15.013 63.3694 15.0357 63.2793 15.0352C62.6796 15.1349 61.1803 13.7888 61.1803 13.1905V12.8914C61.2303 11.0965 61.1303 10.947 59.4811 10.1991C59.1359 10.0777 58.8266 9.87199 58.5815 9.60083C58.2816 9.20197 57.8818 9.25183 57.4321 9.4014C56.9823 9.55097 56.7324 9.85011 56.7824 10.3487C56.9331 11.5556 56.9832 12.773 56.9323 13.9882C56.9356 14.1269 56.9697 14.2631 57.0322 14.3871C58.5815 16.6306 59.1812 19.273 59.9309 21.8157C60.5306 23.7601 61.6301 24.8071 63.6291 24.9567C63.949 24.9821 64.2665 25.0321 64.5787 25.1063C64.9894 25.1721 65.3709 25.3593 65.6738 25.6437C65.9767 25.9281 66.1872 26.2967 66.2779 26.7017C66.6277 27.7487 66.4278 27.9979 65.3783 27.9979H62.1298C61.7093 28.0192 61.297 27.8761 60.9804 27.5991C60.4746 27.1732 59.9 26.8361 59.2812 26.602C58.5971 26.35 58.0049 25.8983 57.582 25.3057C56.9966 24.4898 56.3265 23.7378 55.5829 23.0621C54.1836 21.6163 52.6843 20.2203 51.3849 18.7246C50.3957 17.7054 49.8251 16.3536 49.7857 14.9355C49.7857 14.4868 49.6857 14.2874 49.1859 14.4868C49.0363 14.5815 48.8634 14.6332 48.6862 14.6363C47.2868 14.6363 46.5872 15.4839 46.0874 16.7303C45.6376 17.7773 45.0379 18.7745 44.4881 19.8214C44.1764 20.4768 44.0062 21.1902 43.9884 21.9154C43.9884 23.112 44.2882 23.5108 45.3877 23.9097C46.0874 24.159 46.7371 24.4083 47.0869 25.1063C47.4867 25.904 47.3868 26.1034 46.5372 26.1532H43.1388C42.9429 26.1726 42.7458 26.1301 42.5754 26.0317C42.405 25.9333 42.27 25.784 42.1892 25.6048L41.2897 24.1091C41.0245 23.7189 40.8547 23.272 40.794 22.8045C40.7332 22.3369 40.7832 21.8617 40.9398 21.4169C41.1561 20.5511 41.1732 19.6477 40.9898 18.7745C40.8638 18.1663 40.8747 17.5378 41.0216 16.9343C41.1685 16.3308 41.4478 15.7673 41.8394 15.2845C42.1393 14.9355 42.1393 14.7859 41.6395 14.6862C39.5959 14.2531 37.6147 13.5664 35.7423 12.6421C35.729 12.6421 35.7163 12.6368 35.7069 12.6275C35.6976 12.6181 35.6923 12.6054 35.6923 12.5922C34.093 11.9939 33.7932 12.0937 33.3434 13.7389C32.9436 15.1349 32.5438 16.5309 32.2439 17.9767C31.8941 19.5722 32.2939 21.0679 32.7937 22.5636C32.9936 23.1618 33.5933 23.112 34.0431 23.2616C35.0426 23.5607 35.8922 23.9595 36.292 25.0065C36.6418 25.8042 36.5919 25.904 35.7423 25.904C34.8927 25.904 34.0431 25.8541 33.1435 25.904C32.3844 25.9177 31.6435 25.6713 31.0445 25.206C28.6456 23.6105 27.9459 21.1676 27.746 18.5252C27.6461 16.8799 26.7465 15.5836 25.697 14.3372C25.4971 14.0879 25.2972 13.9882 24.9973 14.1876C23.9246 14.7777 22.8046 15.278 21.6489 15.6833C19.2372 16.5329 17.1209 18.0557 15.5518 20.0707C14.9659 20.8061 14.5864 21.6836 14.4523 22.6134C14.3024 23.5108 14.5523 23.9097 15.4518 24.159C16.3514 24.4083 16.8012 24.9068 16.9012 25.8541C16.9511 26.253 16.8012 26.4524 16.4014 26.4524H12.3533C12.2208 26.443 12.0926 26.4019 11.9794 26.3324C11.8663 26.263 11.7717 26.1673 11.7036 26.0535C11.0758 25.2781 10.7399 24.308 10.754 23.3114C10.7278 21.5888 10.8785 19.8681 11.2038 18.1762C11.2705 17.6695 11.4602 17.1867 11.7563 16.7696C12.0524 16.3526 12.446 16.0139 12.903 15.7831C15.8516 14.3871 17.4009 11.7447 18.8003 9.00255C19.1001 8.45412 18.8502 8.35441 18.3505 8.40427C16.9518 8.59797 15.6266 9.14738 14.5023 9.99968C13.0301 11.071 11.6432 12.2545 10.3542 13.5395C8.97971 14.9323 7.15709 15.7973 5.20666 15.9825C1.55838 16.1819 -0.140819 14.1378 0.00911068 10.8472C0.0426261 9.72527 0.466719 8.64995 1.20855 7.80599C1.46643 7.47244 1.81812 7.22315 2.2187 7.08995C2.61928 6.95674 3.05057 6.94566 3.45749 7.05814C4.20713 7.25756 4.40704 7.65642 4.10718 8.40427C3.95725 8.70341 3.75734 8.95269 3.60742 9.25183C3.39182 9.55743 3.22336 9.89354 3.10765 10.249C2.55791 11.7447 3.30756 12.7917 4.85683 12.9412C6.50605 13.0908 7.85541 12.3928 9.10483 11.3957C10.6101 10.1932 11.9538 8.80244 13.1029 7.25756C13.9622 6.12951 15.0441 5.18915 16.2819 4.49457C17.5196 3.79998 18.887 3.36592 20.2995 3.21917C21.449 3.0696 22.4485 2.57104 23.548 2.2719C25.6043 1.6465 27.7455 1.34374 29.895 1.37448C30.8906 1.41584 31.8824 1.22819 32.7937 0.826052C35.2425 -0.171081 37.7913 -0.171081 40.3401 0.327486C42.3392 0.726339 44.3382 1.22491 46.2873 1.72347C47.4472 1.93909 48.64 1.90509 49.7857 1.62376C51.979 1.06912 54.2224 0.735075 56.4825 0.626626C57.963 0.554765 59.4387 0.845765 60.7805 1.47419C61.78 1.9229 61.78 1.9229 61.5301 2.87018Z" fill="black"/>
</svg>
